<svg xmlns="http://www.w3.org/2000/svg" viewBox="0 0 256 302"><title>Descript</title><path d="M0 274.036C0 290.498 10.683 301.175 27.151 301.175h79.33C153.805 301.176 192.518 285.171 218.838 257.15H0v16.886zm106.481-274.035H27.151C10.683 0 0 10.678 0 27.14v16.886h218.838C192.518 16.006 153.805.002 106.481.002zm69.231 193.502c0 13.318 8.68 21.959 22.06 21.959h47.535c5.389-13.366 9.01-28.06 10.693-43.917h-58.227c-13.382 0-22.06 8.64-22.06 21.958zm-65.888-85.72c0 13.32 8.68 21.959 22.06 21.959H256c-1.683-15.857-5.303-30.551-10.693-43.917H131.885c-13.381 0-22.06 8.639-22.06 21.958zm-43.842 85.72c0-13.32-8.68-21.959-22.06-21.959H0v43.918h43.921c13.381 0 22.06-8.64 22.06-21.959zm-43.842-85.72c0-13.32-8.68-21.959-22.06-21.959H0v43.918h22.138c13.381 0 22.06-8.639 22.06-21.959z" fill="#0062FF"/></svg>